<?xml version="1.0" encoding="utf-8"?>
<!-- Generator: Adobe Illustrator 24.0.0, SVG Export Plug-In . SVG Version: 6.00 Build 0)  -->
<svg version="1.1" id="Layer_1" xmlns="http://www.w3.org/2000/svg" xmlns:xlink="http://www.w3.org/1999/xlink" x="0px" y="0px"
	 viewBox="0 0 411.8 280.7" style="enable-background:new 0 0 411.8 280.7;" xml:space="preserve">
<style type="text/css">
	.st0{fill:#1E4880;}
	.st1{fill:#E82C2F;}
</style>
<g>
	<path class="st0" d="M294.7,93.5v65.8l-61.2-55.4L176.9,190L118,102.2c0,0-44.5,69.9-48.6,75.7c-4,5.8-3.5,19.6,12.1,19.6h90.2
		l-34.1,54.9h-82c-19.7,0-36-12.6-43.9-30.1c-8.3-18.3-7.5-41.8,1.7-56C33,136.2,95,38.7,114.4,8.2c2.7-5.4,8.3-5.6,11.7,0
		l52.5,82.4l53-82.4c3-5.6,8.6-5.4,11.5,0L294.7,93.5z"/>
	<polygon class="st1" points="156.1,276.6 140,276.6 193,196.4 213.6,196.4 213.6,231.4 237.9,196.4 265.8,196.4 265.8,251.5 
		243.8,251.5 243.8,210 217.1,251.5 197.5,251.5 197.5,211.8 	"/>
	<rect x="275.8" y="196.4" class="st0" width="17.5" height="55.1"/>
	<path class="st1" d="M274.6,179.1c0-5.5,4.5-10,10-10c5.5,0,10,4.5,10,10c0,5.5-4.4,10-10,10C279.1,189.1,274.6,184.6,274.6,179.1"
		/>
	<polygon class="st0" points="377.8,241 405.8,241 405.8,251.5 364.7,251.5 364.7,196.4 405.8,196.4 405.8,206.9 377.8,206.9 
		377.8,219.5 403.6,219.5 403.6,230 377.8,230 	"/>
	<path class="st1" d="M302,196.4h33.7c8.4,0,15.6,5.8,15.6,17.4c0,14.4-10.1,17.3-10.1,17.3l16.1,20.3h-16.5l-20-28.1h11
		c3.5,0,7.4-2.8,7.4-8.4c0-5.6-2.5-7.3-8.8-7.3h-14.1v43.9H302V196.4z"/>
</g>
<g>
</g>
<g>
</g>
<g>
</g>
<g>
</g>
<g>
</g>
</svg>
