<svg id="Layer_1" data-name="Layer 1" xmlns="http://www.w3.org/2000/svg" viewBox="0 0 465.17 409.32"><defs><style>.cls-1{fill:#ed1c24;}.cls-2{fill:#232020;}.cls-3{fill:#fff;}</style></defs><title>Artboard 41000</title><path class="cls-1" d="M192.73,244.65c-56.58,0-79-86.85-89.76-128.59-5.73-22.17-12.7-62.75,4.85-85.41,7.9-10.2,19.75-15.37,35.2-15.37h0V24h0c-12.79,0-22.05,3.92-28.3,12-15.85,20.46-7.6,61.29-3.31,77.89,9.42,36.52,31.49,122.05,81.32,122.05s71.91-85.53,81.33-122c4.29-16.6,12.54-57.43-3.31-77.89-6.25-8.07-15.51-12-28.3-12V15.28c15.45,0,27.29,5.17,35.2,15.37,7.53,9.73,18.18,33.76,4.85,85.41C271.73,157.8,249.32,244.65,192.73,244.65Z"/><path class="cls-1" d="M143,6.84h30.91a12.8,12.8,0,0,1,12.8,12.8v0a12.8,12.8,0,0,1-12.8,12.8H143a0,0,0,0,1,0,0V6.84A0,0,0,0,1,143,6.84Z"/><path class="cls-1" d="M198.74,6.84h30.91a12.8,12.8,0,0,1,12.8,12.8v0a12.8,12.8,0,0,1-12.8,12.8H198.74a0,0,0,0,1,0,0V6.84a0,0,0,0,1,0,0Z" transform="translate(441.19 39.28) rotate(-180)"/><path class="cls-1" d="M231.5,402.48a43.1,43.1,0,0,1-43.12-43.13V240.29h8.72V359.35a34.41,34.41,0,1,0,68.82,0V271.72a43.14,43.14,0,1,1,86.28,0V376.83h-8.72V271.72a34.42,34.42,0,1,0-68.84,0v87.63A43.18,43.18,0,0,1,231.5,402.48Z"/><circle class="cls-1" cx="347.84" cy="376.83" r="20.68"/><circle class="cls-1" cx="347.84" cy="376.83" r="14.62"/><circle class="cls-1" cx="192.73" cy="123.43" r="56.21"/><polygon class="cls-2" points="229.09 111.19 204.97 111.19 204.97 87.08 180.5 87.08 180.5 111.19 156.38 111.19 156.38 135.67 180.5 135.67 180.5 159.78 204.97 159.78 204.97 135.67 229.09 135.67 229.09 111.19"/><path class="cls-3" d="M205,111.19V87.08H180.5v24.11H156.38v24.48H180.5v24.11H205V135.67h24.12V111.19Zm21,21.37H201.87v24.12H183.6V132.56H159.48V114.29H183.6V90.18h18.27v24.11H226Z"/></svg>