<svg id="Layer_1" data-name="Layer 1" xmlns="http://www.w3.org/2000/svg" viewBox="0 0 465.17 409.32"><defs><style>.cls-1{fill:#ed1c24;}</style></defs><title>Artboard 31000</title><g id="snowflake"><circle class="cls-1" cx="355.45" cy="107.05" r="14.44"/><path class="cls-1" d="M435.25,139.17l-6.63-3.83-4.13,7.15-10.72-6.19,10-17.35-6.63-3.84-10,17.36-10.72-6.19L403.49,114l-6.64-3.83-7.07,12.25-8.92-5.15a27.27,27.27,0,0,0,0-20.5l8.92-5.14,7.07,12.25,6.64-3.83-7.07-12.25,10.72-6.19,10,17.35,6.63-3.83-10-17.35,10.72-6.19,4.13,7.14,6.63-3.83-4.12-7.14,8.16-4.72-3.83-6.64-8.16,4.72L423.17,54l-6.64,3.83L420.66,65l-10.72,6.19-10-17.36-6.64,3.84L403.3,75l-10.72,6.19-7.07-12.25-6.63,3.83L386,85,377,90.18a27.36,27.36,0,0,0-17.74-10.26V69.62h14.15V62H359.28V49.58h20V41.92h-20V29.54h8.25V21.88h-8.25V12.45h-7.66v9.43h-8.25v7.66h8.25V41.92h-20v7.66h20V62H337.47v7.66h14.15v10.3a27.36,27.36,0,0,0-17.74,10.26L325,85,332,72.77l-6.64-3.83-7.07,12.25L307.6,75l10-17.35L311,53.81,301,71.17,290.24,65l4.13-7.15L287.73,54l-4.12,7.15-8.17-4.72-3.83,6.64,8.16,4.72-4.12,7.14,6.63,3.83,4.13-7.14,10.72,6.19-10,17.35L293.75,99l10-17.35,10.72,6.19-7.08,12.25,6.64,3.83,7.07-12.25L330,96.8a27.27,27.27,0,0,0,0,20.5l-8.92,5.15-7.07-12.25L307.41,114l7.08,12.25-10.72,6.19-10-17.36L287.11,119l10,17.35-10.72,6.19-4.13-7.15-6.63,3.83,4.12,7.15L271.61,151l3.83,6.63,8.17-4.71,4.12,7.14,6.64-3.83-4.13-7.14L301,142.94l10,17.35,6.64-3.83-10-17.36,10.72-6.18,7.07,12.25,6.64-3.83L325,129.09l8.93-5.16a27.4,27.4,0,0,0,17.74,10.26v10.29H337.47v7.66h14.15v12.38h-20v7.66h20v12.38h-8.25v7.66h8.25v9.43h7.66v-9.43h8.25v-7.66h-8.25V172.18h20v-7.66h-20V152.14h14.15v-7.66H359.28V134.19A27.4,27.4,0,0,0,377,123.93l8.93,5.16-7.07,12.25,6.63,3.83,7.07-12.25,10.72,6.18-10,17.36,6.64,3.83,10-17.35,10.72,6.19-4.13,7.14,6.64,3.83L427.3,153l8.16,4.71,3.83-6.63-8.16-4.72ZM375.2,107.05a19.75,19.75,0,1,1-19.75-19.74A19.77,19.77,0,0,1,375.2,107.05Z"/></g><g id="snowflake-2" data-name="snowflake"><circle class="cls-1" cx="158.65" cy="247.06" r="22.87"/><path class="cls-1" d="M285,297.93l-10.51-6.07L268,303.18l-17-9.8,15.87-27.49-10.51-6.07L240.5,287.31l-17-9.8,11.2-19.4L224.21,252,213,271.44l-14.12-8.15a43.26,43.26,0,0,0,0-32.46L213,222.68l11.2,19.4L234.72,236l-11.2-19.4,17-9.8,15.86,27.48,10.51-6.06L251,200.74l17-9.8,6.53,11.32L285,196.19l-6.53-11.32,12.93-7.46-6.07-10.51-12.93,7.47-6.53-11.32-10.51,6.07,6.53,11.31-17,9.8-15.87-27.48-10.51,6.07,15.87,27.48-17,9.8-11.2-19.4-10.51,6.07,11.2,19.4-14.13,8.16a43.43,43.43,0,0,0-28.1-16.24v-16.3h22.41V175.65H164.71v-19.6h31.74V143.92H164.71V124.31h13.07V112.18H164.71V97.25H152.58v14.93H139.51v12.13h13.07v19.61H120.84v12.13h31.74v19.6h-22.4v12.14h22.4v16.3a43.43,43.43,0,0,0-28.09,16.24l-14.14-8.16,11.2-19.4L111,186.7l-11.2,19.4-17-9.8,15.86-27.48-10.51-6.07L72.36,190.23l-17-9.8,6.53-11.31-10.5-6.07-6.54,11.32L31.94,166.9l-6.07,10.51,12.94,7.46-6.54,11.32,10.51,6.07,6.53-11.32,17,9.8L50.42,228.23l10.51,6.06L76.8,206.81l17,9.8L82.57,236l10.51,6.07,11.2-19.4,14.12,8.15a43.26,43.26,0,0,0,0,32.46l-14.12,8.15L93.08,252l-10.51,6.07,11.2,19.4-17,9.8L60.93,259.82l-10.51,6.07,15.87,27.49-17,9.8-6.53-11.32-10.51,6.07,6.54,11.31-12.94,7.47,6.07,10.51,12.93-7.47,6.54,11.32L61.91,325l-6.53-11.31,17-9.81,15.86,27.49,10.51-6.07L82.87,297.82l17-9.8,11.2,19.4,10.51-6.07L110.35,282l14.14-8.16A43.43,43.43,0,0,0,152.58,290v16.3h-22.4v12.14h22.4v19.6H120.84V350.2h31.74v19.6H139.51v12.14h13.07v14.93h12.13V381.94h13.07V369.8H164.71V350.2h31.74V338.07H164.71v-19.6h22.41V306.33H164.71V290a43.43,43.43,0,0,0,28.1-16.24L206.94,282l-11.2,19.4,10.51,6.07,11.2-19.4,17,9.8L218.56,325.3l10.51,6.07,15.87-27.49,17,9.81L255.38,325l10.51,6.07,6.53-11.32,12.93,7.47,6.07-10.51-12.93-7.47Zm-95.1-50.87a31.27,31.27,0,1,1-31.27-31.27A31.31,31.31,0,0,1,189.92,247.06Z"/></g></svg>