<svg id="Layer_1" data-name="Layer 1" xmlns="http://www.w3.org/2000/svg" viewBox="0 0 465.17 409.32"><defs><style>.cls-1{fill:#ed1c24;}</style></defs><title>Artboard 11000</title><path class="cls-1" d="M159.9,182.47a66.37,66.37,0,1,0,66.38,66.37A66.36,66.36,0,0,0,159.9,182.47Zm0,114.35a48,48,0,1,1,48-48A48,48,0,0,1,159.9,296.82Z"/><path class="cls-1" d="M305.66,226.55l-10.42-36.71-28.56,3.66A118,118,0,0,0,245,164.26l12.26-25.56-31.58-21.43L206,138.63a118.44,118.44,0,0,0-35.13-8.31l-7.13-27.82-38,3.88L124.37,136A118.25,118.25,0,0,0,92.7,152L68.81,134.9,42.22,162.28l18.37,24.11a119,119,0,0,0-13.74,32.05l-29.94,2.29L14.14,258.8l30,6.75A116.42,116.42,0,0,0,47.44,281,119.48,119.48,0,0,0,54,298.66L32.33,319.83l22.35,30.95L82,336.66a119.71,119.71,0,0,0,28.78,19.2l-3,30,37,9.33,11.7-28a118.22,118.22,0,0,0,34.88-3.74l16.69,24.41,34.35-16.63-8.82-28.32a118.58,118.58,0,0,0,24.79-25.74L286.26,325l15.61-34.82-24.43-15.68a118.16,118.16,0,0,0,2.36-36.19ZM179.12,310.4a64.19,64.19,0,1,1,44.23-79.28A64.2,64.2,0,0,1,179.12,310.4Z"/><path class="cls-1" d="M451,94.42l-6.74-23.77L425.8,73a75.85,75.85,0,0,0-14-18.92l7.94-16.54L399.28,23.7,386.53,37.52a76.7,76.7,0,0,0-22.73-5.38l-4.61-18-24.58,2.52-.89,19.15a76.48,76.48,0,0,0-20.5,10.38L297.76,35.1l-17.2,17.72,11.88,15.6a77,77,0,0,0-8.88,20.74l-19.38,1.49-1.79,24.63,19.42,4.37a79.5,79.5,0,0,0,2.12,10,77.89,77.89,0,0,0,4.24,11.4l-14,13.7,14.46,20,17.69-9.13a77.3,77.3,0,0,0,18.63,12.43L323,197.49l24,6,7.56-18.1A76.62,76.62,0,0,0,377.11,183l10.8,15.8L410.14,188l-5.71-18.33a76.7,76.7,0,0,0,16-16.65l18,5,10.1-22.53-15.81-10.15A76.54,76.54,0,0,0,434.29,102Zm-81.88,54.24a41.53,41.53,0,1,1,28.62-51.29A41.51,41.51,0,0,1,369.14,148.66Z"/><path class="cls-1" d="M356.71,56.7a52.14,52.14,0,1,0,52.13,52.13A52.13,52.13,0,0,0,356.71,56.7Zm0,90.23a38.1,38.1,0,1,1,38.09-38.1A38.1,38.1,0,0,1,356.71,146.93Z"/></svg>